<svg xmlns="http://www.w3.org/2000/svg" width="1080" height="1350" viewBox="0 0 1080 1350">
    <defs><filter id="glow" x="-30%" y="-30%" width="160%" height="160%"><feGaussianBlur stdDeviation="11"/></filter>
    <linearGradient id="edge" x1="0" y1="0" x2="1" y2="1"><stop stop-color="#FFBD65"/><stop offset=".5" stop-color="#D8892A"/><stop offset="1" stop-color="#FFBD65"/></linearGradient></defs>
    <rect x="20" y="20" width="1040" height="1310" rx="44" fill="none" stroke="#D8892A" stroke-opacity=".32" stroke-width="18" filter="url(#glow)"/>
    <rect x="28" y="28" width="1024" height="1294" rx="38" fill="none" stroke="url(#edge)" stroke-width="4"/>
    <path d="M48 125 H260 M820 125 H1032" stroke="#D8892A" opacity=".46" stroke-width="4"/>
    <path d="M48 1254 H260 M820 1254 H1032" stroke="#D8892A" opacity=".34" stroke-width="4"/>
    <circle cx="152" cy="580" r="2.5" fill="#FFBD65" opacity="0.42"/><circle cx="737" cy="938" r="1.5" fill="#FFBD65" opacity="0.51"/><circle cx="511" cy="1236" r="2.5" fill="#FFBD65" opacity="0.32"/><circle cx="844" cy="679" r="2" fill="#FFBD65" opacity="0.57"/><circle cx="689" cy="842" r="3.5" fill="#FFBD65" opacity="0.51"/><circle cx="765" cy="1062" r="2.5" fill="#FFBD65" opacity="0.36"/><circle cx="1045" cy="373" r="2.5" fill="#FFBD65" opacity="0.26"/><circle cx="193" cy="1132" r="3.5" fill="#FFBD65" opacity="0.42"/><circle cx="85" cy="670" r="1.5" fill="#FFBD65" opacity="0.60"/><circle cx="116" cy="712" r="1.5" fill="#FFBD65" opacity="0.39"/><circle cx="636" cy="628" r="3.5" fill="#FFBD65" opacity="0.30"/><circle cx="94" cy="568" r="2.5" fill="#FFBD65" opacity="0.56"/><circle cx="951" cy="165" r="2" fill="#FFBD65" opacity="0.34"/><circle cx="290" cy="330" r="3.5" fill="#FFBD65" opacity="0.35"/><circle cx="821" cy="255" r="2.5" fill="#FFBD65" opacity="0.63"/><circle cx="246" cy="198" r="2.5" fill="#FFBD65" opacity="0.23"/><circle cx="167" cy="504" r="3.5" fill="#FFBD65" opacity="0.33"/><circle cx="66" cy="276" r="3.5" fill="#FFBD65" opacity="0.22"/><circle cx="983" cy="948" r="2.5" fill="#FFBD65" opacity="0.58"/><circle cx="413" cy="728" r="2" fill="#FFBD65" opacity="0.57"/><circle cx="548" cy="806" r="2.5" fill="#FFBD65" opacity="0.39"/><circle cx="455" cy="234" r="1.5" fill="#FFBD65" opacity="0.51"/><circle cx="512" cy="199" r="2.5" fill="#FFBD65" opacity="0.30"/><circle cx="707" cy="93" r="2" fill="#FFBD65" opacity="0.66"/> <path d="M70 210 C240 90 840 90 1010 210" fill="none" stroke="#D8892A" opacity=".22" stroke-width="7"/>
    </svg>